<?xml version="1.0" standalone="no"?>
<!DOCTYPE svg PUBLIC "-//W3C//DTD SVG 20010904//EN"
 "http://www.w3.org/TR/2001/REC-SVG-20010904/DTD/svg10.dtd">
<svg version="1.0" xmlns="http://www.w3.org/2000/svg"
 width="200.000000pt" height="200.000000pt" viewBox="0 0 200.000000 200.000000"
 preserveAspectRatio="xMidYMid meet">
<metadata>
Created by potrace 1.11, written by Peter Selinger 2001-2013
</metadata>
<g transform="translate(0.000000,200.000000) scale(0.100000,-0.100000)"
fill="#000000" stroke="none">
<path d="M837 1885 c-442 -84 -759 -485 -734 -930 19 -328 203 -610 492 -755
149 -75 229 -94 405 -94 173 0 254 19 397 89 232 114 406 327 475 580 31 115
31 336 0 450 -88 319 -333 563 -650 646 -103 27 -282 33 -385 14z m492 -202
c148 -29 270 -116 304 -217 21 -62 22 -159 2 -217 -36 -103 -141 -197 -264
-235 -66 -21 -74 -29 -38 -38 41 -10 106 -65 129 -108 17 -33 22 -59 22 -114
0 -205 -178 -346 -484 -384 -52 -6 -135 -10 -184 -9 -80 2 -90 0 -97 -17 -13
-37 -48 -57 -104 -62 -65 -5 -100 12 -108 55 -3 15 1 98 10 183 30 325 123
778 168 820 42 39 164 39 185 0 8 -14 2 -52 -24 -152 -19 -73 -44 -185 -56
-248 -26 -137 -60 -393 -53 -400 10 -10 240 -3 298 9 79 17 145 51 183 95 74
84 46 209 -56 253 -18 7 -64 18 -103 22 -83 11 -99 22 -99 68 0 53 24 91 63
97 17 2 68 9 112 15 212 29 336 160 277 293 -33 76 -100 111 -241 128 -186 23
-413 -20 -608 -115 -154 -75 -196 -72 -195 14 1 53 14 74 68 112 206 142 604
210 893 152z"/>
</g>
</svg>
